<mxfile host="app.diagrams.net" modified="2022-12-10T13:18:12.893Z" agent="5.0 (Windows NT 10.0; Win64; x64) AppleWebKit/537.36 (KHTML, like Gecko) Chrome/108.0.0.0 Safari/537.36" etag="ajrwqa-FoflYvQZwoqxs" version="20.6.2" type="github">
  <diagram id="C5RBs43oDa-KdzZeNtuy" name="Page-1">
    <mxGraphModel dx="868" dy="460" grid="1" gridSize="10" guides="1" tooltips="1" connect="1" arrows="1" fold="1" page="1" pageScale="1" pageWidth="827" pageHeight="1169" math="0" shadow="0">
      <root>
        <mxCell id="WIyWlLk6GJQsqaUBKTNV-0" />
        <mxCell id="WIyWlLk6GJQsqaUBKTNV-1" parent="WIyWlLk6GJQsqaUBKTNV-0" />
        <mxCell id="WIyWlLk6GJQsqaUBKTNV-3" value="Lamp doesn&#39;t work" style="rounded=1;whiteSpace=wrap;html=1;fontSize=12;glass=0;strokeWidth=1;shadow=0;" parent="WIyWlLk6GJQsqaUBKTNV-1" vertex="1">
          <mxGeometry x="160" y="80" width="120" height="40" as="geometry" />
        </mxCell>
        <mxCell id="DWFQ8LwmJbGI9cYOrWI1-11" style="edgeStyle=orthogonalEdgeStyle;rounded=0;orthogonalLoop=1;jettySize=auto;html=1;exitX=1;exitY=0.5;exitDx=0;exitDy=0;entryX=0;entryY=0.5;entryDx=0;entryDy=0;" edge="1" parent="WIyWlLk6GJQsqaUBKTNV-1" source="DWFQ8LwmJbGI9cYOrWI1-0" target="DWFQ8LwmJbGI9cYOrWI1-1">
          <mxGeometry relative="1" as="geometry" />
        </mxCell>
        <mxCell id="DWFQ8LwmJbGI9cYOrWI1-0" value="coding&amp;nbsp;&lt;br&gt;VCS" style="rounded=0;whiteSpace=wrap;html=1;" vertex="1" parent="WIyWlLk6GJQsqaUBKTNV-1">
          <mxGeometry x="60" y="430" width="120" height="60" as="geometry" />
        </mxCell>
        <mxCell id="DWFQ8LwmJbGI9cYOrWI1-13" style="edgeStyle=orthogonalEdgeStyle;rounded=0;orthogonalLoop=1;jettySize=auto;html=1;exitX=1;exitY=0.5;exitDx=0;exitDy=0;entryX=0;entryY=0.5;entryDx=0;entryDy=0;" edge="1" parent="WIyWlLk6GJQsqaUBKTNV-1" source="DWFQ8LwmJbGI9cYOrWI1-1" target="DWFQ8LwmJbGI9cYOrWI1-2">
          <mxGeometry relative="1" as="geometry" />
        </mxCell>
        <mxCell id="DWFQ8LwmJbGI9cYOrWI1-1" value="code review&lt;br&gt;unit testing&amp;nbsp;&lt;br&gt;code coverage&amp;nbsp;&lt;br&gt;packaging&amp;nbsp;" style="rounded=0;whiteSpace=wrap;html=1;" vertex="1" parent="WIyWlLk6GJQsqaUBKTNV-1">
          <mxGeometry x="240" y="430" width="120" height="60" as="geometry" />
        </mxCell>
        <mxCell id="DWFQ8LwmJbGI9cYOrWI1-16" style="edgeStyle=orthogonalEdgeStyle;rounded=0;orthogonalLoop=1;jettySize=auto;html=1;exitX=1;exitY=0.5;exitDx=0;exitDy=0;entryX=0;entryY=0.5;entryDx=0;entryDy=0;" edge="1" parent="WIyWlLk6GJQsqaUBKTNV-1" source="DWFQ8LwmJbGI9cYOrWI1-2" target="DWFQ8LwmJbGI9cYOrWI1-3">
          <mxGeometry relative="1" as="geometry" />
        </mxCell>
        <mxCell id="DWFQ8LwmJbGI9cYOrWI1-2" value="dev&lt;br&gt;testing&amp;nbsp;&lt;br&gt;pre prod&lt;br&gt;production" style="rounded=0;whiteSpace=wrap;html=1;" vertex="1" parent="WIyWlLk6GJQsqaUBKTNV-1">
          <mxGeometry x="420" y="430" width="120" height="60" as="geometry" />
        </mxCell>
        <mxCell id="DWFQ8LwmJbGI9cYOrWI1-3" value="monitoring&amp;nbsp;" style="rounded=0;whiteSpace=wrap;html=1;" vertex="1" parent="WIyWlLk6GJQsqaUBKTNV-1">
          <mxGeometry x="590" y="430" width="120" height="60" as="geometry" />
        </mxCell>
        <mxCell id="DWFQ8LwmJbGI9cYOrWI1-4" value="GIT" style="shape=process;whiteSpace=wrap;html=1;backgroundOutline=1;" vertex="1" parent="WIyWlLk6GJQsqaUBKTNV-1">
          <mxGeometry x="60" y="390" width="120" height="20" as="geometry" />
        </mxCell>
        <mxCell id="DWFQ8LwmJbGI9cYOrWI1-5" value="maven, Jenkins" style="shape=process;whiteSpace=wrap;html=1;backgroundOutline=1;" vertex="1" parent="WIyWlLk6GJQsqaUBKTNV-1">
          <mxGeometry x="240" y="390" width="120" height="20" as="geometry" />
        </mxCell>
        <mxCell id="DWFQ8LwmJbGI9cYOrWI1-6" value="docker, ansible" style="shape=process;whiteSpace=wrap;html=1;backgroundOutline=1;" vertex="1" parent="WIyWlLk6GJQsqaUBKTNV-1">
          <mxGeometry x="414" y="390" width="120" height="20" as="geometry" />
        </mxCell>
        <mxCell id="DWFQ8LwmJbGI9cYOrWI1-7" value="prom/gafana" style="shape=process;whiteSpace=wrap;html=1;backgroundOutline=1;" vertex="1" parent="WIyWlLk6GJQsqaUBKTNV-1">
          <mxGeometry x="590" y="390" width="120" height="20" as="geometry" />
        </mxCell>
        <mxCell id="DWFQ8LwmJbGI9cYOrWI1-8" value="integration" style="shape=trapezoid;perimeter=trapezoidPerimeter;whiteSpace=wrap;html=1;fixedSize=1;" vertex="1" parent="WIyWlLk6GJQsqaUBKTNV-1">
          <mxGeometry x="200" y="510" width="130" height="20" as="geometry" />
        </mxCell>
        <mxCell id="DWFQ8LwmJbGI9cYOrWI1-9" value="deployment" style="shape=trapezoid;perimeter=trapezoidPerimeter;whiteSpace=wrap;html=1;fixedSize=1;" vertex="1" parent="WIyWlLk6GJQsqaUBKTNV-1">
          <mxGeometry x="370" y="510" width="130" height="20" as="geometry" />
        </mxCell>
      </root>
    </mxGraphModel>
  </diagram>
</mxfile>
